<svg width="443" height="443" viewBox="0 0 443 443" fill="none" xmlns="http://www.w3.org/2000/svg">
<path d="M259.293 393.958C259.293 393.958 239.566 392.401 238.77 380.842L227.557 348.274L276.321 302.936C276.321 302.936 312.073 302.244 314.115 302.244C316.191 302.244 325.778 348.274 325.778 348.274L308.612 376.446L259.293 393.958Z" fill="#2F2F2F"/>
<path d="M259.674 185.956C260.747 195.508 262.789 203.849 269.469 210.875C274.833 216.482 280.44 221.258 285.389 227.245C299.648 244.515 323.667 250.468 338.41 268.569C348.24 280.647 354.919 295.46 358.311 310.481C362.118 327.37 364.471 346.025 359.764 362.637C353.292 385.41 333.392 388.179 312.592 391.328C303.04 392.782 293.314 393.612 283.624 393.889C275.906 394.097 266.977 395.066 259.259 393.993C252.51 393.024 251.229 383.887 253.064 378.523C255.002 372.743 260.816 370.563 266.25 369.524C268.915 369.005 271.718 369.767 274.418 369.317C279.436 368.521 281.547 365.233 281.651 360.214C281.755 353.362 284.108 347.651 287.258 341.664C288.677 338.964 291.065 336.576 293.349 334.534C295.668 332.388 299.683 329.447 297.468 325.709C293.661 319.202 282.101 325.19 278.19 327.993C272.133 332.285 267.842 338.791 265.973 345.955C263.308 355.888 261.266 356.546 251.991 360.076C246.523 362.187 241.47 365.683 239.393 371.116C236.867 377.865 241.089 385.825 236.728 391.709C233.302 396.416 226.657 399.011 220.566 398.769C204.853 398.077 194.332 394.235 197.62 378.246C199.696 368.209 199.039 357.203 199.661 346.786C199.869 342.875 200.25 336.888 196.339 334.154C194.816 333.046 192.705 332.873 190.94 332.977C189.729 333.011 186.683 332.838 185.541 333.219C182.184 334.292 182.98 339.691 183.014 342.529C183.049 347.997 182.945 353.569 182.807 358.968C182.668 365.371 183.36 371.705 183.43 378.038C183.464 382.191 183.845 387.314 180.419 390.255C176.508 393.716 170.52 394.478 165.191 394.651C158.788 394.893 151.485 394.408 146.155 390.671C135.253 382.987 138.957 365.371 139.96 355.092C140.618 348.413 140.133 341.456 139.96 334.603C139.822 328.443 139.649 322.248 139.51 316.018C139.441 313.457 139.095 310.688 139.234 308.058C139.753 300.79 138.264 293.349 138.057 285.804C137.711 271.96 136.984 257.874 136.984 243.788C136.984 237.766 138.022 231.156 139.753 225.445C140.687 222.4 141.691 218.316 143.317 215.651C145.879 211.394 150.309 207.587 154.012 204.265C158.788 200.008 164.464 197.862 169.932 194.574C177.027 190.282 184.433 186.233 192.117 182.945C205.614 177.2 220.046 172.285 235.136 171.732C240.431 171.524 244.411 170.693 249.534 169.517C254.69 168.34 257.251 171.801 258.186 176.646C258.982 179.657 259.328 182.807 259.674 185.956ZM204.645 86.2812C204.645 86.2812 197.273 77.2481 180.107 52.4332C169.517 37.0666 136.119 -6.19507 119.229 2.76875C93.1684 16.5433 96.0756 114.142 96.0756 114.142L204.645 86.2812ZM215.582 87.4579C215.582 87.4579 224.684 80.1899 246.626 59.4243C260.228 46.6188 301.863 11.2827 316.537 23.4998C339.172 42.3965 316.018 137.261 316.018 137.261L215.582 87.4579Z" fill="#F79329"/>
<path d="M329.862 179.553C331.004 149.409 316.953 116.737 292.207 94.7951C272.203 77.0059 242.508 65.8963 212.64 62.816C182.772 59.632 151.451 64.3388 128.193 77.525C99.3981 93.8606 78.9094 122.863 73.718 152.627C68.8035 180.869 71.5722 210.114 95.9718 232.679C109.504 245.173 126.982 254.552 145.394 260.539C152.385 262.824 170.52 268.327 189.867 270.368C209.283 272.41 229.91 270.991 237.247 270.195C256.49 268.153 275.56 262.651 291.376 253.271C319.998 236.244 328.789 208.21 329.862 179.553" fill="#F79329"/>
<path d="M158.58 168.271C157.403 179.38 148.44 187.548 138.576 186.51C128.712 185.472 121.617 175.643 122.794 164.498C123.971 153.354 132.935 145.186 142.798 146.225C152.662 147.297 159.722 157.127 158.58 168.271ZM241.816 177.027C240.639 188.137 247.699 198 257.563 199.038C267.427 200.077 276.39 191.909 277.567 180.799C278.744 169.655 271.684 159.791 261.82 158.753C251.922 157.75 242.992 165.883 241.816 177.027ZM196.304 223.888C196.131 223.888 195.924 223.888 195.751 223.853C192.809 223.542 190.663 220.912 190.975 217.935L193.051 198.173C193.363 195.231 196.027 193.224 198.969 193.397C201.911 193.709 204.057 196.339 203.745 199.315L201.669 219.043C201.357 221.811 199.038 223.888 196.304 223.888Z" fill="#2F2F2F"/>
<path d="M180.626 236.797C175.193 236.763 169.724 235.101 165.744 232.056C162.595 229.633 157.576 222.296 162.733 219.493C163.564 219.043 164.498 218.8 165.433 218.697C166.921 218.489 168.132 218.87 169.378 219.804C171.386 221.292 173.081 223.957 175.573 224.442C183.36 226.034 190.075 222.054 191.944 214.232C192.428 212.121 192.601 211.117 195.093 210.875C201.15 210.321 202.603 217.935 200.942 222.469C199.454 226.518 197.516 230.879 193.743 233.302C189.867 235.759 185.195 236.832 180.626 236.797Z" fill="#2F2F2F"/>
<path d="M208.971 239.358C214.336 240.328 220.012 239.67 224.511 237.42C228.041 235.586 234.34 229.322 229.772 225.619C226.899 223.3 224.373 224.234 221.569 226.034C214.44 230.637 204.68 227.384 202.292 219.077C201.773 217.174 202.499 214.163 201.634 212.467C201.219 211.671 200.561 211.844 199.592 211.498C198.935 211.256 198.519 210.979 197.793 210.944C194.435 210.736 192.497 214.336 191.978 217.174C191.701 218.697 191.39 219.977 191.632 221.5C192.359 225.792 193.466 230.395 196.754 233.475C200.077 236.659 204.472 238.528 208.971 239.358Z" fill="#2F2F2F"/>
<path d="M179.969 199.454C179.865 203.157 181.976 207.241 185.541 210.01C188.448 212.259 192.74 213.713 196.997 214.128C201.254 214.578 205.753 214.059 209.041 212.502C213.125 210.529 216.032 206.999 216.689 203.33C217.347 199.869 216.897 196.201 213.332 193.363C211.394 191.771 208.868 190.594 206.203 189.832C205.234 189.521 202.603 188.794 199.835 188.517C197.031 188.206 194.089 188.344 193.051 188.448C190.317 188.656 187.583 189.313 185.333 190.421C181.284 192.463 180.073 195.889 179.969 199.454Z" fill="#2F2F2F"/>
<path d="M337.926 343.498C342.148 340.695 346.578 341.941 351.285 342.494C371.566 344.848 394.547 362.637 395.378 383.818C396.381 411.021 372.189 430.679 348.101 437.151C330.554 441.858 311.554 441.858 293.488 441.131C285.597 440.82 271.338 442.135 264.381 437.705C261.889 436.147 259.709 432.894 258.567 430.229C254.379 420.504 262.824 413.72 271.857 413.755C278.432 413.79 285.008 413.893 291.619 413.824C306.016 413.72 320.483 414.793 334.707 411.955C347.651 409.394 366.617 399.254 365.821 383.472C365.233 371.878 352.358 369.593 343.083 368.209C340.729 367.863 338.411 367.102 335.711 367.032C330.416 366.894 330.658 361.91 331.039 358.034C331.592 352.531 332.458 347.928 337.061 344.156C337.234 343.948 337.58 343.706 337.926 343.498ZM82.1973 172.078C81.8512 172.078 81.5051 172.043 81.159 171.974L52.7101 166.402C49.8029 165.848 47.8994 163.01 48.4878 160.103C49.0415 157.196 51.9487 155.258 54.7867 155.881L83.2356 161.487C86.1428 162.041 88.0463 164.879 87.4579 167.752C86.9388 170.278 84.6892 172.078 82.1973 172.078ZM52.9524 193.882C50.2875 193.882 48.0032 191.909 47.6571 189.209C47.2418 186.268 49.3184 183.603 52.2602 183.187L81.0206 179.415C83.8932 179 86.6273 181.076 87.0426 184.018C87.4233 186.96 85.3468 189.659 82.4396 190.04L53.6792 193.812C53.4369 193.882 53.2293 193.882 52.9524 193.882ZM61.4317 218.108C59.1128 218.108 56.9671 216.585 56.2749 214.197C55.4443 211.359 57.1055 208.418 59.9781 207.587L87.8386 199.627C90.6766 198.831 93.653 200.457 94.4836 203.33C95.2796 206.168 93.653 209.144 90.7804 209.94L62.9199 217.901C62.4007 218.039 61.9162 218.108 61.4317 218.108ZM317.403 192.809C314.703 192.809 312.384 190.767 312.073 188.033C311.917 186.619 312.329 185.202 313.219 184.092C314.108 182.982 315.401 182.271 316.814 182.115L345.644 178.896C348.516 178.654 351.251 180.696 351.562 183.637C351.908 186.614 349.762 189.244 346.821 189.556L317.991 192.774C317.783 192.774 317.576 192.809 317.403 192.809ZM344.675 217.001C344.294 217.001 343.913 216.966 343.498 216.862L315.188 210.667C313.804 210.361 312.597 209.519 311.832 208.326C311.067 207.132 310.805 205.685 311.104 204.299C311.761 201.427 314.599 199.592 317.472 200.215L345.817 206.41C348.689 207.033 350.558 209.906 349.901 212.778C349.382 215.27 347.132 217.001 344.675 217.001ZM334.257 240.397C333.634 240.397 332.977 240.293 332.354 240.051L305.255 229.806C302.486 228.768 301.067 225.653 302.14 222.884C303.178 220.116 306.293 218.731 309.062 219.77L336.196 230.014C338.964 231.087 340.349 234.167 339.31 236.936C338.48 239.082 336.438 240.397 334.257 240.397Z" fill="#F79329"/>
<path d="M124.594 43.3309C122.067 49.9067 116.98 68.838 120.164 82.3011C121.098 86.3158 126.22 88.1155 129.854 86.385C137.434 82.751 149.27 76.3483 153.7 74.1333C161.245 70.4301 163.841 65.827 159.757 60.1857C154.565 52.9869 141.622 38.0703 133.973 36.6167C129.612 35.7861 126.255 39.074 124.594 43.3309ZM303.178 61.5355C304.597 68.4573 306.397 87.9424 300.998 100.748C299.406 104.52 294.041 105.455 290.753 103.136C283.901 98.2906 273.345 89.9844 269.296 87.0772C262.512 82.1627 260.678 77.1789 265.662 72.299C271.96 66.0693 287.223 53.5061 295.01 53.3677C299.475 53.2638 302.278 57.0709 303.178 61.5355Z" fill="#FCD4B5"/>
</svg>
