<svg width="255" height="255" viewBox="0 0 255 255" fill="none" xmlns="http://www.w3.org/2000/svg">
<rect width="255" height="255" fill="white"/>
<path d="M138.125 233.75H116.875V212.5H138.125V233.75ZM116.875 212.5H95.625V191.25H116.875V212.5ZM159.375 212.5H138.125V191.25H159.375V212.5ZM95.625 191.25H74.375V170H95.625V191.25ZM180.625 191.25H159.375V170H180.625V191.25ZM74.375 170H53.125V148.75H74.375V170ZM201.875 170H180.625V148.75H201.875V170ZM53.125 148.75H31.875V127.5H53.125V148.75ZM223.125 148.75H201.875V127.5H223.125V148.75ZM31.875 127.5H10.625V63.75H31.875V127.5ZM244.375 127.5H223.125V63.75H244.375V127.5ZM138.125 85H116.875V63.75H138.125V85ZM53.125 63.75H31.875V42.5H53.125V63.75ZM116.875 63.75H95.625V42.5H116.875V63.75ZM159.375 63.75H138.125V42.5H159.375V63.75ZM223.125 63.75H201.875V42.5H223.125V63.75ZM95.625 42.5H53.125V21.25H95.625V42.5ZM201.875 42.5H159.375V21.25H201.875V42.5Z" fill="#9370DB"/>
</svg>
